<?xml version="1.0" standalone="no"?>
<!DOCTYPE svg PUBLIC "-//W3C//DTD SVG 20010904//EN"
 "http://www.w3.org/TR/2001/REC-SVG-20010904/DTD/svg10.dtd">
<svg version="1.0" xmlns="http://www.w3.org/2000/svg"
 width="500.000000pt" height="500.000000pt" viewBox="0 0 500.000000 500.000000"
 preserveAspectRatio="xMidYMid meet">
<metadata>
Created by potrace 1.14, written by Peter Selinger 2001-2017
</metadata>
<g transform="translate(0.000000,500.000000) scale(0.100000,-0.100000)"
fill="#000000" stroke="none">
<path d="M0 2500 l0 -2500 2500 0 2500 0 0 2500 0 2500 -2500 0 -2500 0 0
-2500z m3215 1232 c10 -6 59 -86 112 -182 11 -19 62 -107 113 -195 205 -355
482 -839 486 -850 4 -10 -67 -141 -217 -401 -13 -22 -62 -107 -109 -188 -47
-81 -93 -159 -102 -174 -10 -15 -21 -34 -25 -42 -4 -8 -25 -46 -48 -85 -35
-59 -105 -181 -150 -260 -6 -11 -21 -37 -34 -58 l-23 -37 -713 0 -713 0 -49
82 c-26 46 -53 92 -60 103 -7 11 -16 29 -22 41 -5 11 -28 51 -50 88 -23 36
-41 69 -41 71 0 3 -23 42 -51 88 -28 45 -55 91 -60 102 -5 11 -15 29 -21 40
-23 35 -54 88 -190 325 -75 129 -143 249 -153 265 l-18 31 176 307 c97 168
195 336 217 373 22 36 40 68 40 70 0 2 20 37 43 77 24 39 47 79 51 87 4 8 12
24 19 35 7 11 43 74 81 140 38 66 76 128 84 138 14 16 61 17 716 17 386 0 706
-4 711 -8z"/>
<path d="M1858 3537 c-14 -23 -41 -69 -59 -102 -18 -33 -50 -88 -71 -123 -21
-34 -38 -64 -38 -67 0 -3 -17 -33 -38 -67 -21 -35 -53 -88 -70 -118 -16 -30
-96 -169 -176 -309 l-145 -253 16 -31 c29 -57 315 -552 334 -579 11 -14 19
-29 19 -33 0 -4 19 -40 43 -79 24 -39 46 -78 50 -86 4 -8 16 -28 26 -45 11
-16 31 -51 44 -76 14 -25 35 -63 47 -85 44 -80 -11 -74 671 -74 l608 0 24 33
c13 17 41 63 61 101 21 37 54 96 75 130 20 33 40 68 44 76 4 8 16 30 27 48 40
65 335 579 368 640 l34 63 -42 72 c-22 40 -45 79 -50 87 -15 24 -264 454 -313
540 -96 169 -95 167 -174 303 l-45 77 -621 0 -622 0 -27 -43z m1119 -290 c11
-17 92 -156 178 -307 87 -151 169 -292 181 -312 13 -21 24 -40 24 -43 0 -3 11
-23 25 -46 l26 -40 -38 -67 c-21 -37 -42 -74 -48 -84 -5 -9 -17 -29 -26 -45
-8 -15 -60 -104 -114 -198 -54 -93 -109 -190 -123 -215 -14 -25 -42 -72 -62
-105 l-37 -60 -458 0 -459 0 -41 70 c-23 39 -56 97 -74 130 -18 33 -36 65 -41
70 -4 6 -17 26 -28 45 -10 19 -72 127 -137 240 -65 113 -118 210 -118 216 0 6
20 47 45 90 26 44 120 207 210 364 91 157 171 295 179 308 l14 22 450 0 450 0
22 -33z"/>
</g>
</svg>
