<svg id="svg" version="1.1" xmlns="http://www.w3.org/2000/svg" xmlns:xlink="http://www.w3.org/1999/xlink" width="400" height="400" viewBox="0, 0, 400,400"><g id="svgg"><path id="path0" d="M147.889 100.810 C 142.600 101.714,141.838 102.667,130.309 122.800 C 127.348 127.970,120.194 140.390,114.411 150.400 C 85.092 201.148,87.435 196.740,87.670 200.701 C 87.886 204.368,86.094 201.096,120.697 261.000 C 126.289 270.680,132.874 282.092,135.332 286.360 C 140.395 295.154,142.241 297.469,145.288 298.846 L 147.400 299.800 200.400 299.800 C 243.201 299.800,253.686 299.699,254.886 299.274 C 258.499 297.994,260.549 295.274,268.808 280.800 C 271.780 275.590,288.828 246.039,304.921 218.200 C 316.100 198.861,316.131 201.693,304.512 181.565 C 300.777 175.094,291.281 158.640,283.411 145.000 C 275.541 131.360,267.315 117.105,265.131 113.322 C 260.568 105.416,258.525 102.916,255.512 101.554 L 253.400 100.600 201.600 100.542 C 173.110 100.510,148.940 100.631,147.889 100.810 M244.582 114.418 C 250.393 115.258,251.189 116.155,260.704 132.600 C 298.627 198.142,296.999 195.240,297.683 198.503 C 298.563 202.697,300.543 198.920,267.327 256.400 C 262.940 263.990,258.013 272.521,256.376 275.358 C 252.783 281.585,250.746 283.965,247.912 285.246 L 245.800 286.200 201.846 286.310 C 155.107 286.427,154.732 286.414,151.607 284.483 C 148.957 282.845,148.027 281.417,135.739 260.118 C 129.546 249.383,120.106 233.040,114.762 223.800 C 99.542 197.487,99.208 203.487,117.670 171.600 C 124.612 159.610,134.026 143.320,138.589 135.400 C 150.002 115.592,150.227 115.325,156.200 114.407 C 159.279 113.934,241.303 113.944,244.582 114.418 M167.936 137.746 C 162.537 138.926,164.692 135.791,140.682 177.400 C 126.164 202.559,126.169 197.911,140.632 223.000 C 163.249 262.234,161.797 259.959,165.383 261.793 L 167.743 263.000 200.572 263.000 L 233.400 263.000 235.288 262.061 C 238.710 260.361,238.613 260.504,252.077 237.200 C 273.590 199.963,272.453 202.356,271.004 197.339 C 270.272 194.806,269.966 194.243,259.317 175.800 C 237.319 137.703,239.034 140.363,235.290 138.524 L 233.000 137.400 201.600 137.325 C 177.901 137.269,169.645 137.372,167.936 137.746 " stroke="none" fill="#fa0b14" fill-rule="evenodd"></path><path id="path1" d="M0.000 200.000 L 0.000 400.000 200.000 400.000 L 400.000 400.000 400.000 200.000 L 400.000 0.000 200.000 0.000 L 0.000 0.000 0.000 200.000 M255.512 101.554 C 258.525 102.916,260.568 105.416,265.131 113.322 C 267.315 117.105,275.541 131.360,283.411 145.000 C 291.281 158.640,300.777 175.094,304.512 181.565 C 316.131 201.693,316.100 198.861,304.921 218.200 C 288.828 246.039,271.780 275.590,268.808 280.800 C 260.549 295.274,258.499 297.994,254.886 299.274 C 253.686 299.699,243.201 299.800,200.400 299.800 L 147.400 299.800 145.288 298.846 C 142.241 297.469,140.395 295.154,135.332 286.360 C 132.874 282.092,126.289 270.680,120.697 261.000 C 86.094 201.096,87.886 204.368,87.670 200.701 C 87.466 197.261,87.950 196.218,97.083 180.400 C 100.830 173.910,108.628 160.410,114.411 150.400 C 120.194 140.390,127.348 127.970,130.309 122.800 C 140.456 105.079,141.243 103.912,144.214 102.171 C 147.072 100.496,147.571 100.481,201.600 100.542 L 253.400 100.600 255.512 101.554 M156.200 114.407 C 150.227 115.325,150.002 115.592,138.589 135.400 C 134.026 143.320,124.612 159.610,117.670 171.600 C 99.208 203.487,99.542 197.487,114.762 223.800 C 120.106 233.040,129.546 249.383,135.739 260.118 C 148.027 281.417,148.957 282.845,151.607 284.483 C 154.732 286.414,155.107 286.427,201.846 286.310 L 245.800 286.200 247.912 285.246 C 250.746 283.965,252.783 281.585,256.376 275.358 C 258.013 272.521,262.940 263.990,267.327 256.400 C 300.543 198.920,298.563 202.697,297.683 198.503 C 296.999 195.240,298.627 198.142,260.704 132.600 C 251.189 116.155,250.393 115.258,244.582 114.418 C 241.303 113.944,159.279 113.934,156.200 114.407 M235.290 138.524 C 238.472 140.087,239.391 141.313,246.179 153.057 C 271.448 196.774,270.195 194.539,271.004 197.339 C 272.453 202.356,273.590 199.963,252.077 237.200 C 238.613 260.504,238.710 260.361,235.288 262.061 L 233.400 263.000 200.572 263.000 L 167.743 263.000 165.383 261.793 C 161.797 259.959,163.249 262.234,140.632 223.000 C 126.169 197.911,126.164 202.559,140.682 177.400 C 163.060 138.619,161.525 141.115,164.094 139.335 C 167.060 137.279,167.701 137.245,201.600 137.325 L 233.000 137.400 235.290 138.524 " stroke="none" fill="#040404" fill-rule="evenodd"></path></g></svg>
